<svg width="34" height="34" viewBox="0 0 34 34" fill="none" xmlns="http://www.w3.org/2000/svg">
<path d="M28.8468 24.1302C27.897 23.1796 26.7872 22.4037 25.5683 21.8382C27.2872 20.4456 28.3839 18.3206 28.3839 15.9375C28.3839 11.7331 24.8776 8.28372 20.6732 8.34823C16.5332 8.41274 13.1977 11.7862 13.1977 15.9375C13.1977 18.3206 14.2982 20.4456 16.0133 21.8382C14.7942 22.4033 13.6843 23.1792 12.7348 24.1302C10.6629 26.2058 9.48656 28.9456 9.41067 31.8674C9.40966 31.9079 9.41676 31.9482 9.43156 31.9859C9.44636 32.0236 9.46856 32.058 9.49686 32.087C9.52515 32.116 9.55895 32.1391 9.59629 32.1548C9.63362 32.1705 9.67373 32.1786 9.71424 32.1786H11.8392C12.0024 32.1786 12.139 32.0496 12.1428 31.8864C12.2149 29.6855 13.1067 27.625 14.6738 26.0616C15.4758 25.2554 16.4297 24.6162 17.4803 24.1811C18.531 23.746 19.6574 23.5236 20.7946 23.5268C23.1055 23.5268 25.2799 24.4261 26.9154 26.0616C28.4787 27.625 29.3705 29.6855 29.4464 31.8864C29.4502 32.0496 29.5868 32.1786 29.75 32.1786H31.875C31.9155 32.1786 31.9556 32.1705 31.9929 32.1548C32.0302 32.1391 32.064 32.116 32.0923 32.087C32.1206 32.058 32.1428 32.0236 32.1576 31.9859C32.1724 31.9482 32.1795 31.9079 32.1785 31.8674C32.1026 28.9456 30.9263 26.2058 28.8468 24.1302ZM20.7946 20.7947C19.4968 20.7947 18.275 20.29 17.3604 19.3717C16.9015 18.9163 16.539 18.3732 16.2945 17.7747C16.05 17.1762 15.9286 16.5346 15.9375 15.8882C15.9488 14.6435 16.4459 13.4406 17.3149 12.5489C18.2256 11.6154 19.4437 11.0956 20.7453 11.0804C22.0316 11.069 23.2801 11.5699 24.1984 12.4692C25.1395 13.3913 25.6555 14.6246 25.6555 15.9375C25.6555 17.2353 25.1508 18.4534 24.2325 19.3717C23.782 19.8244 23.2462 20.1832 22.6561 20.4275C22.066 20.6717 21.4333 20.7965 20.7946 20.7947ZM11.289 16.9393C11.2549 16.6092 11.2359 16.2752 11.2359 15.9375C11.2359 15.3342 11.2928 14.746 11.3991 14.173C11.4256 14.0364 11.3535 13.896 11.2283 13.8391C10.7122 13.6076 10.2379 13.2889 9.82808 12.8866C9.34517 12.4184 8.96517 11.8546 8.71232 11.2313C8.45947 10.608 8.33933 9.93887 8.35955 9.26654C8.3937 8.04846 8.88321 6.89109 9.73701 6.01832C10.6743 5.05828 11.9341 4.53462 13.2736 4.5498C14.4841 4.56118 15.6529 5.02792 16.537 5.85515C16.8368 6.13596 17.0948 6.44712 17.3111 6.78105C17.387 6.89868 17.535 6.94801 17.664 6.90247C18.3319 6.671 19.0377 6.50783 19.7625 6.43194C19.975 6.40917 20.0964 6.18149 20.0015 5.99176C18.7683 3.5518 16.2486 1.86698 13.3343 1.82145C9.12607 1.75694 5.61982 5.20627 5.61982 9.40694C5.61982 11.79 6.71647 13.915 8.43545 15.3076C7.22875 15.8654 6.11692 16.6357 5.15308 17.5996C3.07362 19.6752 1.89728 22.415 1.82138 25.3406C1.82037 25.3811 1.82747 25.4214 1.84228 25.4592C1.85708 25.4969 1.87928 25.5312 1.90757 25.5602C1.93586 25.5892 1.96967 25.6123 2.007 25.628C2.04434 25.6437 2.08444 25.6518 2.12496 25.6518H4.25375C4.41692 25.6518 4.55353 25.5228 4.55732 25.3596C4.62942 23.1587 5.52116 21.0982 7.08835 19.5348C8.20397 18.4192 9.57004 17.6451 11.0613 17.2694C11.2093 17.2315 11.308 17.0911 11.289 16.9393Z" fill="black"/>
</svg>
