<svg width="26" height="26" viewBox="0 0 26 26" fill="none" xmlns="http://www.w3.org/2000/svg">
<circle cx="12.5" cy="12.5" r="4.75" stroke="#6B717D" stroke-width="2"/>
<rect x="11.5417" y="1" width="1.91667" height="3.83333" rx="0.958333" fill="#6B717D"/>
<rect x="4.4314" y="4.79736" width="1.76923" height="3.53846" rx="0.884615" transform="rotate(-45 4.4314 4.79736)" fill="#6B717D"/>
<rect x="6.93286" y="17.7002" width="1.76923" height="3.53846" rx="0.884615" transform="rotate(45 6.93286 17.7002)" fill="#6B717D"/>
<rect x="19.3179" y="3.54639" width="1.76923" height="3.53846" rx="0.884615" transform="rotate(45 19.3179 3.54639)" fill="#6B717D"/>
<rect x="16.8157" y="18.9512" width="1.76923" height="3.53846" rx="0.884615" transform="rotate(-45 16.8157 18.9512)" fill="#6B717D"/>
<rect x="24" y="11.5415" width="1.91667" height="3.83333" rx="0.958333" transform="rotate(90 24 11.5415)" fill="#6B717D"/>
<rect x="4.83325" y="11.5415" width="1.91667" height="3.83333" rx="0.958333" transform="rotate(90 4.83325 11.5415)" fill="#6B717D"/>
<rect x="11.5417" y="20.1665" width="1.91667" height="3.83333" rx="0.958333" fill="#6B717D"/>
</svg>
