<svg width="22" height="22" viewBox="0 0 22 22" fill="none" xmlns="http://www.w3.org/2000/svg">
<path d="M19.2499 13.5025L18.5166 12.8975C18.2973 12.7154 18.1235 12.4848 18.0089 12.2238C17.8943 11.9629 17.8422 11.6788 17.8566 11.3941V11V10.6058C17.8422 10.3212 17.8943 10.0371 18.0089 9.77613C18.1235 9.51516 18.2973 9.28451 18.5166 9.10247L19.2499 8.49747C19.4184 8.36083 19.533 8.16887 19.5733 7.95571C19.6136 7.74255 19.577 7.52201 19.4699 7.3333L18.4066 5.49997C18.2974 5.31452 18.1264 5.1734 17.9237 5.10133C17.7209 5.02927 17.4992 5.03085 17.2974 5.1058L16.3808 5.4358C16.114 5.53552 15.8276 5.5717 15.5444 5.54146C15.2611 5.51123 14.9889 5.41542 14.7491 5.26164C14.5336 5.11277 14.3068 4.98098 14.0708 4.86747C13.8164 4.73702 13.5961 4.54889 13.4273 4.3181C13.2586 4.08731 13.1462 3.82027 13.0991 3.5383L12.9433 2.62164C12.9081 2.40473 12.7962 2.20766 12.628 2.06633C12.4597 1.925 12.2463 1.84881 12.0266 1.85164H9.91827C9.69856 1.84881 9.48514 1.925 9.31688 2.06633C9.14863 2.20766 9.03675 2.40473 9.00161 2.62164L8.84577 3.5383C8.80258 3.81682 8.69575 4.08162 8.53359 4.31215C8.37143 4.54267 8.1583 4.7327 7.91077 4.86747C7.67473 4.98098 7.44793 5.11277 7.23244 5.26164C6.99269 5.41542 6.7204 5.51123 6.43718 5.54146C6.15395 5.5717 5.86758 5.53552 5.60077 5.4358L4.68411 5.1058C4.48471 5.03567 4.26721 5.0366 4.06842 5.10843C3.86963 5.18026 3.70178 5.31858 3.59327 5.49997L2.52994 7.3333C2.42293 7.52201 2.38631 7.74255 2.42659 7.95571C2.46687 8.16887 2.58145 8.36083 2.74994 8.49747L3.48327 9.10247C3.70256 9.28451 3.8764 9.51516 3.99096 9.77613C4.10553 10.0371 4.15768 10.3212 4.14327 10.6058V11.3941C4.15768 11.6788 4.10553 11.9629 3.99096 12.2238C3.8764 12.4848 3.70256 12.7154 3.48327 12.8975L2.74994 13.5025C2.58145 13.6391 2.46687 13.8311 2.42659 14.0442C2.38631 14.2574 2.42293 14.4779 2.52994 14.6666L3.59327 16.5C3.70247 16.6854 3.87344 16.8265 4.07623 16.8986C4.27902 16.9707 4.5007 16.9691 4.70244 16.8941L5.61911 16.5641C5.88591 16.4644 6.17229 16.4282 6.45551 16.4585C6.73874 16.4887 7.01102 16.5845 7.25077 16.7383C7.46626 16.8872 7.69307 17.019 7.92911 17.1325C8.18348 17.2629 8.40383 17.4511 8.57254 17.6818C8.74125 17.9126 8.85366 18.1797 8.90077 18.4616L9.05661 19.3783C9.09175 19.5952 9.20363 19.7923 9.37188 19.9336C9.54014 20.0749 9.75356 20.1511 9.97327 20.1483H12.0816C12.3013 20.1511 12.5147 20.0749 12.683 19.9336C12.8512 19.7923 12.9631 19.5952 12.9983 19.3783L13.1541 18.4616C13.2012 18.1797 13.3136 17.9126 13.4823 17.6818C13.6511 17.4511 13.8714 17.2629 14.1258 17.1325C14.3618 17.019 14.5886 16.8872 14.8041 16.7383C15.0439 16.5845 15.3161 16.4887 15.5994 16.4585C15.8826 16.4282 16.169 16.4644 16.4358 16.5641L17.3524 16.8941C17.547 16.955 17.7562 16.9493 17.9471 16.8779C18.138 16.8065 18.2997 16.6735 18.4066 16.5L19.4699 14.6666C19.577 14.4779 19.6136 14.2574 19.5733 14.0442C19.533 13.8311 19.4184 13.6391 19.2499 13.5025ZM10.9999 13.75C10.456 13.75 9.92436 13.5887 9.47212 13.2865C9.01989 12.9843 8.66741 12.5548 8.45927 12.0524C8.25113 11.5499 8.19667 10.9969 8.30278 10.4635C8.40889 9.93003 8.6708 9.44002 9.0554 9.05543C9.43999 8.67083 9.92999 8.40892 10.4634 8.30281C10.9969 8.1967 11.5498 8.25116 12.0523 8.4593C12.5548 8.66744 12.9843 9.01992 13.2865 9.47215C13.5887 9.92439 13.7499 10.4561 13.7499 11C13.7499 11.7293 13.4602 12.4288 12.9445 12.9445C12.4288 13.4602 11.7293 13.75 10.9999 13.75Z" fill="white"/>
</svg>
