<svg width="145" height="41" viewBox="0 0 145 41" fill="none" xmlns="http://www.w3.org/2000/svg">
<path d="M3.8156 39.5C2.7993 39.5564 1.85195 39.5522 1 39.5H3.8156C12.5415 39.0154 26.3504 34.0553 28.5 16.5C29.8333 11.6667 34.7 1.8 43.5 1H105.5C109.667 2 117.5 6 121.5 16.5C122 17.8125 127.5 36.5 144 39.5H3.8156Z" fill="#F4F3F9"/>
<path d="M1 39.5C9.16667 40 26.1 36.1 28.5 16.5C29.8333 11.6667 34.7 1.8 43.5 1H105.5C109.667 2 117.5 6 121.5 16.5C122 17.8125 127.5 36.5 144 39.5C143.2 39.5 48.3333 39.5 1 39.5Z" stroke="#F4F3F9"/>
</svg>
